<!-- <svg xmlns="http://www.w3.org/2000/svg" viewBox="0 0 32 40" x="0px" y="0px"><title>File, Empty states</title><g data-name="Layer 2"><path d="M6,30H21a.9981.9981,0,0,0,.6245-.2192l5-4A.9993.9993,0,0,0,27,25V3a1,1,0,0,0-1-1H6A1,1,0,0,0,5,3V29A1,1,0,0,0,6,30Zm15-2.28V25h3.3994ZM7,4H25V23H20a1,1,0,0,0-1,1v4H7Z"/><circle cx="17.9951" cy="14.9951" r="1.0049"/><path d="M21.4453,14.832a1,1,0,1,0,1.1094-1.6641l-3-2a1,1,0,0,0-1.1094,1.6641Z"/><circle cx="14.0049" cy="14.9951" r="1.0049"/><path d="M13.832,11.4453a.9986.9986,0,0,0-1.3867-.2773l-3,2a1,1,0,1,0,1.1094,1.6641l3-2A1,1,0,0,0,13.832,11.4453Z"/><path d="M19.876,20.9922A.99.99,0,0,0,20.0015,21a1,1,0,0,0,.1226-1.9922l-8-1a1,1,0,0,0-.248,1.9844Z"/></g><text x="0" y="47" fill="#000000" font-size="5px" font-weight="bold" font-family="'Helvetica Neue', Helvetica, Arial-Unicode, Arial, Sans-serif">Created by Numeralia Vita Zein</text><text x="0" y="52" fill="#000000" font-size="5px" font-weight="bold" font-family="'Helvetica Neue', Helvetica, Arial-Unicode, Arial, Sans-serif">from the Noun Project</text></svg> -->
<svg xmlns="http://www.w3.org/2000/svg" width="100" height="100" viewBox="0 0 24 24"><path fill="none" stroke="currentColor" stroke-width="1" d="M2.998 1H17.5L21 4.5V23H3L2.998 1ZM16 1v5h5M9 12l6 6m0-6l-6 6"/></svg>